<svg xmlns="http://www.w3.org/2000/svg" xmlns:xlink="http://www.w3.org/1999/xlink" width="550" zoomAndPan="magnify" viewBox="0 0 412.5 74.999997" height="100" preserveAspectRatio="xMidYMid meet" version="1.0"><defs><g/></defs><g fill="#000000" fill-opacity="1"><g transform="translate(143.784882, 39.740635)"><g><path d="M 3.375 0 L 0.703125 0 L 0.703125 -6.359375 L 8.015625 -6.359375 L 8.015625 -4.78125 L 3.375 -4.78125 L 3.375 -3.796875 L 7.296875 -3.796875 L 7.296875 -2.5625 L 3.375 -2.5625 Z M 3.375 0 "/></g></g></g><g fill="#000000" fill-opacity="1"><g transform="translate(152.151005, 39.740635)"><g><path d="M 8.375 0 L 0.703125 0 L 0.703125 -6.359375 L 8.015625 -6.359375 L 8.015625 -4.78125 L 3.375 -4.78125 L 3.375 -3.796875 L 7.296875 -3.796875 L 7.296875 -2.5625 L 3.375 -2.5625 L 3.375 -1.578125 L 8.375 -1.578125 Z M 8.375 0 "/></g></g></g><g fill="#000000" fill-opacity="1"><g transform="translate(160.867008, 39.740635)"><g><path d="M 10.6875 0 L 7.984375 0 L 7.375 -1.046875 L 3.375 -1.046875 L 2.765625 0 L 0.0625 0 L 4.140625 -6.359375 L 6.609375 -6.359375 Z M 6.484375 -2.609375 L 5.375 -4.546875 L 4.265625 -2.609375 Z M 6.484375 -2.609375 "/></g></g></g><g fill="#000000" fill-opacity="1"><g transform="translate(171.607001, 39.740635)"><g><path d="M 9.390625 0 L 6.875 0 C 6.757812 -0.15625 6.675781 -0.359375 6.625 -0.609375 C 6.582031 -0.804688 6.519531 -0.992188 6.4375 -1.171875 C 6.351562 -1.359375 6.207031 -1.515625 6 -1.640625 C 5.800781 -1.765625 5.503906 -1.828125 5.109375 -1.828125 L 3.375 -1.828125 L 3.375 0 L 0.703125 0 L 0.703125 -6.359375 L 5.046875 -6.359375 C 6.085938 -6.359375 6.925781 -6.28125 7.5625 -6.125 C 8.195312 -5.96875 8.660156 -5.722656 8.953125 -5.390625 C 9.242188 -5.054688 9.390625 -4.625 9.390625 -4.09375 C 9.390625 -3.644531 9.285156 -3.269531 9.078125 -2.96875 C 8.878906 -2.664062 8.5625 -2.425781 8.125 -2.25 C 8.550781 -2.070312 8.828125 -1.859375 8.953125 -1.609375 C 9.078125 -1.367188 9.15625 -1.101562 9.1875 -0.8125 C 9.21875 -0.550781 9.285156 -0.28125 9.390625 0 Z M 3.375 -3.40625 L 4.90625 -3.40625 C 5.332031 -3.40625 5.664062 -3.425781 5.90625 -3.46875 C 6.15625 -3.507812 6.335938 -3.5625 6.453125 -3.625 C 6.566406 -3.6875 6.640625 -3.757812 6.671875 -3.84375 C 6.703125 -3.925781 6.71875 -4.007812 6.71875 -4.09375 C 6.71875 -4.175781 6.703125 -4.257812 6.671875 -4.34375 C 6.640625 -4.425781 6.566406 -4.5 6.453125 -4.5625 C 6.335938 -4.632812 6.15625 -4.6875 5.90625 -4.71875 C 5.664062 -4.757812 5.332031 -4.78125 4.90625 -4.78125 L 3.375 -4.78125 Z M 3.375 -3.40625 "/></g></g></g><g fill="#000000" fill-opacity="1"><g transform="translate(181.346071, 39.740635)"><g><path d="M 8.140625 0 L 0.703125 0 L 0.703125 -6.359375 L 3.375 -6.359375 L 3.375 -1.578125 L 8.140625 -1.578125 Z M 8.140625 0 "/></g></g></g><g fill="#000000" fill-opacity="1"><g transform="translate(189.65019, 39.740635)"><g><path d="M 8.375 0 L 0.703125 0 L 0.703125 -6.359375 L 8.015625 -6.359375 L 8.015625 -4.78125 L 3.375 -4.78125 L 3.375 -3.796875 L 7.296875 -3.796875 L 7.296875 -2.5625 L 3.375 -2.5625 L 3.375 -1.578125 L 8.375 -1.578125 Z M 8.375 0 "/></g></g></g><g fill="#000000" fill-opacity="1"><g transform="translate(198.366193, 39.740635)"><g><path d="M 4.203125 0.140625 C 3.335938 0.140625 2.640625 0.046875 2.109375 -0.140625 C 1.585938 -0.328125 1.191406 -0.582031 0.921875 -0.90625 C 0.648438 -1.226562 0.46875 -1.597656 0.375 -2.015625 L 3.203125 -2.015625 C 3.410156 -1.710938 3.742188 -1.5625 4.203125 -1.5625 C 4.660156 -1.5625 4.992188 -1.710938 5.203125 -2.015625 C 5.222656 -2.046875 5.234375 -2.070312 5.234375 -2.09375 C 5.234375 -2.175781 5.125 -2.238281 4.90625 -2.28125 C 4.695312 -2.320312 4.382812 -2.351562 3.96875 -2.375 C 3.4375 -2.394531 2.878906 -2.453125 2.296875 -2.546875 C 1.003906 -2.742188 0.359375 -3.265625 0.359375 -4.109375 C 0.359375 -4.179688 0.363281 -4.253906 0.375 -4.328125 C 0.46875 -4.753906 0.648438 -5.128906 0.921875 -5.453125 C 1.191406 -5.773438 1.585938 -6.023438 2.109375 -6.203125 C 2.640625 -6.390625 3.335938 -6.484375 4.203125 -6.484375 C 5.054688 -6.484375 5.742188 -6.390625 6.265625 -6.203125 C 6.796875 -6.023438 7.195312 -5.773438 7.46875 -5.453125 C 7.75 -5.128906 7.9375 -4.753906 8.03125 -4.328125 L 5.203125 -4.328125 C 4.992188 -4.628906 4.660156 -4.78125 4.203125 -4.78125 C 3.742188 -4.78125 3.410156 -4.628906 3.203125 -4.328125 C 3.179688 -4.304688 3.171875 -4.285156 3.171875 -4.265625 C 3.171875 -4.191406 3.269531 -4.140625 3.46875 -4.109375 C 3.675781 -4.078125 3.976562 -4.046875 4.375 -4.015625 C 4.769531 -3.992188 5.191406 -3.957031 5.640625 -3.90625 C 6.085938 -3.851562 6.503906 -3.757812 6.890625 -3.625 C 7.273438 -3.5 7.578125 -3.304688 7.796875 -3.046875 C 7.972656 -2.847656 8.0625 -2.597656 8.0625 -2.296875 C 8.0625 -2.203125 8.050781 -2.109375 8.03125 -2.015625 C 7.9375 -1.597656 7.75 -1.226562 7.46875 -0.90625 C 7.195312 -0.582031 6.796875 -0.328125 6.265625 -0.140625 C 5.742188 0.046875 5.054688 0.140625 4.203125 0.140625 Z M 4.203125 0.140625 "/></g></g></g><g fill="#000000" fill-opacity="1"><g transform="translate(206.772175, 39.740635)"><g><path d="M 4.203125 0.140625 C 3.335938 0.140625 2.640625 0.046875 2.109375 -0.140625 C 1.585938 -0.328125 1.191406 -0.582031 0.921875 -0.90625 C 0.648438 -1.226562 0.46875 -1.597656 0.375 -2.015625 L 3.203125 -2.015625 C 3.410156 -1.710938 3.742188 -1.5625 4.203125 -1.5625 C 4.660156 -1.5625 4.992188 -1.710938 5.203125 -2.015625 C 5.222656 -2.046875 5.234375 -2.070312 5.234375 -2.09375 C 5.234375 -2.175781 5.125 -2.238281 4.90625 -2.28125 C 4.695312 -2.320312 4.382812 -2.351562 3.96875 -2.375 C 3.4375 -2.394531 2.878906 -2.453125 2.296875 -2.546875 C 1.003906 -2.742188 0.359375 -3.265625 0.359375 -4.109375 C 0.359375 -4.179688 0.363281 -4.253906 0.375 -4.328125 C 0.46875 -4.753906 0.648438 -5.128906 0.921875 -5.453125 C 1.191406 -5.773438 1.585938 -6.023438 2.109375 -6.203125 C 2.640625 -6.390625 3.335938 -6.484375 4.203125 -6.484375 C 5.054688 -6.484375 5.742188 -6.390625 6.265625 -6.203125 C 6.796875 -6.023438 7.195312 -5.773438 7.46875 -5.453125 C 7.75 -5.128906 7.9375 -4.753906 8.03125 -4.328125 L 5.203125 -4.328125 C 4.992188 -4.628906 4.660156 -4.78125 4.203125 -4.78125 C 3.742188 -4.78125 3.410156 -4.628906 3.203125 -4.328125 C 3.179688 -4.304688 3.171875 -4.285156 3.171875 -4.265625 C 3.171875 -4.191406 3.269531 -4.140625 3.46875 -4.109375 C 3.675781 -4.078125 3.976562 -4.046875 4.375 -4.015625 C 4.769531 -3.992188 5.191406 -3.957031 5.640625 -3.90625 C 6.085938 -3.851562 6.503906 -3.757812 6.890625 -3.625 C 7.273438 -3.5 7.578125 -3.304688 7.796875 -3.046875 C 7.972656 -2.847656 8.0625 -2.597656 8.0625 -2.296875 C 8.0625 -2.203125 8.050781 -2.109375 8.03125 -2.015625 C 7.9375 -1.597656 7.75 -1.226562 7.46875 -0.90625 C 7.195312 -0.582031 6.796875 -0.328125 6.265625 -0.140625 C 5.742188 0.046875 5.054688 0.140625 4.203125 0.140625 Z M 4.203125 0.140625 "/></g></g></g><g fill="#000000" fill-opacity="1"><g transform="translate(215.178157, 39.740635)"><g/></g></g><g fill="#000000" fill-opacity="1"><g transform="translate(217.42802, 39.740635)"><g><path d="M 12.796875 0 L 10.140625 0 L 10.140625 -4.0625 L 7.75 0 L 5.765625 0 L 3.375 -4.0625 L 3.375 0 L 0.703125 0 L 0.703125 -6.359375 L 3.875 -6.359375 L 6.75 -1.8125 L 9.625 -6.359375 L 12.796875 -6.359375 Z M 12.796875 0 "/></g></g></g><g fill="#000000" fill-opacity="1"><g transform="translate(230.927195, 39.740635)"><g><path d="M 3.375 0 L 0.703125 0 L 0.703125 -6.359375 L 3.375 -6.359375 Z M 3.375 0 "/></g></g></g><g fill="#000000" fill-opacity="1"><g transform="translate(235.010607, 39.740635)"><g><path d="M 10.140625 0 L 6.96875 0 L 3.375 -4.296875 L 3.375 0 L 0.703125 0 L 0.703125 -6.359375 L 3.890625 -6.359375 L 7.484375 -2.078125 L 7.484375 -6.359375 L 10.140625 -6.359375 Z M 10.140625 0 "/></g></g></g><g fill="#000000" fill-opacity="1"><g transform="translate(245.856893, 39.740635)"><g><path d="M 4.96875 0 L 0.703125 0 L 0.703125 -6.359375 L 4.96875 -6.359375 C 6.707031 -6.359375 7.957031 -6.113281 8.71875 -5.625 C 9.332031 -5.238281 9.679688 -4.707031 9.765625 -4.03125 C 9.804688 -3.738281 9.828125 -3.453125 9.828125 -3.171875 C 9.828125 -2.910156 9.804688 -2.628906 9.765625 -2.328125 C 9.734375 -2.035156 9.632812 -1.75 9.46875 -1.46875 C 9.3125 -1.195312 9.0625 -0.953125 8.71875 -0.734375 C 8.375 -0.515625 7.898438 -0.335938 7.296875 -0.203125 C 6.691406 -0.0664062 5.914062 0 4.96875 0 Z M 4.71875 -1.578125 C 6.070312 -1.578125 6.835938 -1.921875 7.015625 -2.609375 C 7.054688 -2.796875 7.078125 -2.984375 7.078125 -3.171875 C 7.078125 -3.367188 7.050781 -3.5625 7 -3.75 C 6.957031 -3.945312 6.859375 -4.125 6.703125 -4.28125 C 6.546875 -4.4375 6.304688 -4.554688 5.984375 -4.640625 C 5.671875 -4.734375 5.25 -4.78125 4.71875 -4.78125 L 3.375 -4.78125 L 3.375 -1.578125 Z M 4.71875 -1.578125 "/></g></g></g><g fill="#000000" fill-opacity="1"><g transform="translate(256.027062, 39.740635)"><g/></g></g></svg>